<mxfile host="Electron" agent="Mozilla/5.0 (Macintosh; Intel Mac OS X 10_15_7) AppleWebKit/537.36 (KHTML, like Gecko) draw.io/25.0.2 Chrome/128.0.6613.186 Electron/32.2.5 Safari/537.36" version="25.0.2">
  <diagram name="Page-1" id="m-ijhAY8p4ea8V5ZrQuL">
    <mxGraphModel dx="1114" dy="999" grid="1" gridSize="10" guides="1" tooltips="1" connect="1" arrows="1" fold="1" page="1" pageScale="1" pageWidth="850" pageHeight="1100" math="0" shadow="0">
      <root>
        <mxCell id="0" />
        <mxCell id="1" parent="0" />
        <mxCell id="QZd9pl8dJDRL5IsNvfAx-2" value="" style="rounded=0;whiteSpace=wrap;html=1;" parent="1" vertex="1">
          <mxGeometry x="320" y="170" width="330" height="410" as="geometry" />
        </mxCell>
        <mxCell id="R9i_MHFADdYMmydRFdRO-1" value="" style="shape=internalStorage;whiteSpace=wrap;html=1;backgroundOutline=1;" parent="1" vertex="1">
          <mxGeometry x="150" y="311" width="80" height="80" as="geometry" />
        </mxCell>
        <mxCell id="R9i_MHFADdYMmydRFdRO-2" value="&lt;b&gt;&lt;font style=&quot;font-size: 14px;&quot;&gt;Starting metadata&lt;/font&gt;&lt;/b&gt;" style="text;html=1;align=center;verticalAlign=middle;resizable=0;points=[];autosize=1;strokeColor=none;fillColor=none;" parent="1" vertex="1">
          <mxGeometry x="120" y="200" width="140" height="30" as="geometry" />
        </mxCell>
        <mxCell id="R9i_MHFADdYMmydRFdRO-3" value="CSV files&lt;br&gt;catalog.csv&lt;br&gt;variables.csv&lt;br&gt;variable_details.csv" style="text;html=1;align=center;verticalAlign=middle;resizable=0;points=[];autosize=1;strokeColor=none;fillColor=none;" parent="1" vertex="1">
          <mxGeometry x="125" y="230" width="130" height="70" as="geometry" />
        </mxCell>
        <mxCell id="R9i_MHFADdYMmydRFdRO-4" value="&lt;div&gt;DDI&lt;br&gt;LinkML&lt;br&gt;PMML&lt;/div&gt;" style="text;html=1;align=center;verticalAlign=middle;resizable=0;points=[];autosize=1;strokeColor=#666666;fillColor=#f5f5f5;fontColor=#333333;" parent="1" vertex="1">
          <mxGeometry x="165" y="462" width="60" height="60" as="geometry" />
        </mxCell>
        <mxCell id="R9i_MHFADdYMmydRFdRO-5" value="Other" style="text;html=1;align=center;verticalAlign=middle;resizable=0;points=[];autosize=1;strokeColor=none;fillColor=none;" parent="1" vertex="1">
          <mxGeometry x="170" y="420" width="50" height="30" as="geometry" />
        </mxCell>
        <mxCell id="R9i_MHFADdYMmydRFdRO-6" value="" style="endArrow=classic;startArrow=classic;html=1;rounded=0;entryX=-0.012;entryY=0.388;entryDx=0;entryDy=0;entryPerimeter=0;" parent="1" edge="1">
          <mxGeometry width="50" height="50" relative="1" as="geometry">
            <mxPoint x="250" y="340" as="sourcePoint" />
            <mxPoint x="316.03999999999996" y="339.08000000000004" as="targetPoint" />
          </mxGeometry>
        </mxCell>
        <mxCell id="R9i_MHFADdYMmydRFdRO-7" value="&lt;font style=&quot;font-size: 12px;&quot;&gt;import&lt;/font&gt;&lt;div&gt;&lt;font style=&quot;font-size: 12px;&quot;&gt;export&lt;/font&gt;&lt;/div&gt;" style="edgeLabel;html=1;align=center;verticalAlign=middle;resizable=0;points=[];" parent="R9i_MHFADdYMmydRFdRO-6" vertex="1" connectable="0">
          <mxGeometry x="0.04" relative="1" as="geometry">
            <mxPoint y="-20" as="offset" />
          </mxGeometry>
        </mxCell>
        <mxCell id="R9i_MHFADdYMmydRFdRO-16" value="variables" style="swimlane;whiteSpace=wrap;html=1;startSize=20;" parent="1" vertex="1">
          <mxGeometry x="390" y="360" width="90" height="70" as="geometry" />
        </mxCell>
        <mxCell id="R9i_MHFADdYMmydRFdRO-17" value="catalog" style="swimlane;whiteSpace=wrap;html=1;" parent="1" vertex="1">
          <mxGeometry x="390" y="270" width="90" height="70" as="geometry">
            <mxRectangle x="390" y="270" width="80" height="30" as="alternateBounds" />
          </mxGeometry>
        </mxCell>
        <mxCell id="R9i_MHFADdYMmydRFdRO-19" value="variable_details" style="swimlane;whiteSpace=wrap;html=1;startSize=20;" parent="1" vertex="1">
          <mxGeometry x="380" y="460" width="110" height="70" as="geometry" />
        </mxCell>
        <mxCell id="R9i_MHFADdYMmydRFdRO-21" value="var_labels()" style="text;html=1;align=center;verticalAlign=middle;resizable=0;points=[];autosize=1;strokeColor=none;fillColor=none;" parent="1" vertex="1">
          <mxGeometry x="550" y="380" width="90" height="30" as="geometry" />
        </mxCell>
        <mxCell id="R9i_MHFADdYMmydRFdRO-22" value="val_labels()&lt;div&gt;tagged_na&lt;/div&gt;" style="text;html=1;align=center;verticalAlign=middle;resizable=0;points=[];autosize=1;strokeColor=none;fillColor=none;" parent="1" vertex="1">
          <mxGeometry x="555" y="470" width="80" height="40" as="geometry" />
        </mxCell>
        <mxCell id="R9i_MHFADdYMmydRFdRO-23" value="" style="endArrow=classic;startArrow=classic;html=1;rounded=0;" parent="1" edge="1">
          <mxGeometry width="50" height="50" relative="1" as="geometry">
            <mxPoint x="500" y="400" as="sourcePoint" />
            <mxPoint x="540" y="400" as="targetPoint" />
          </mxGeometry>
        </mxCell>
        <mxCell id="R9i_MHFADdYMmydRFdRO-25" value="" style="endArrow=classic;startArrow=classic;html=1;rounded=0;" parent="1" edge="1">
          <mxGeometry width="50" height="50" relative="1" as="geometry">
            <mxPoint x="500" y="489.65999999999997" as="sourcePoint" />
            <mxPoint x="540" y="489.65999999999997" as="targetPoint" />
          </mxGeometry>
        </mxCell>
        <mxCell id="R9i_MHFADdYMmydRFdRO-27" value="" style="endArrow=classic;html=1;rounded=0;entryX=1.003;entryY=0.437;entryDx=0;entryDy=0;entryPerimeter=0;" parent="1" edge="1">
          <mxGeometry width="50" height="50" relative="1" as="geometry">
            <mxPoint x="710" y="336.5" as="sourcePoint" />
            <mxPoint x="650.99" y="336.1700000000001" as="targetPoint" />
            <Array as="points" />
          </mxGeometry>
        </mxCell>
        <mxCell id="R9i_MHFADdYMmydRFdRO-28" value="&lt;div&gt;&lt;font style=&quot;font-size: 12px;&quot;&gt;import&lt;/font&gt;&lt;/div&gt;&lt;font style=&quot;font-size: 12px;&quot;&gt;haven&lt;/font&gt;" style="edgeLabel;html=1;align=center;verticalAlign=middle;resizable=0;points=[];" parent="R9i_MHFADdYMmydRFdRO-27" vertex="1" connectable="0">
          <mxGeometry x="0.0417" y="1" relative="1" as="geometry">
            <mxPoint x="1" as="offset" />
          </mxGeometry>
        </mxCell>
        <mxCell id="R9i_MHFADdYMmydRFdRO-29" value="&lt;b&gt;&lt;font style=&quot;font-size: 14px;&quot;&gt;recodeflow&lt;br&gt;metadata (df)&lt;br&gt;&lt;/font&gt;&lt;/b&gt;" style="text;html=1;align=center;verticalAlign=middle;resizable=0;points=[];autosize=1;strokeColor=none;fillColor=none;" parent="1" vertex="1">
          <mxGeometry x="377" y="190" width="110" height="50" as="geometry" />
        </mxCell>
        <mxCell id="R9i_MHFADdYMmydRFdRO-30" value="&lt;b&gt;&lt;font style=&quot;font-size: 14px;&quot;&gt;Import labelled&amp;nbsp;&lt;/font&gt;&lt;/b&gt;&lt;div&gt;&lt;b&gt;&lt;font style=&quot;font-size: 14px;&quot;&gt;data&lt;/font&gt;&lt;/b&gt;&lt;/div&gt;" style="text;html=1;align=center;verticalAlign=middle;resizable=0;points=[];autosize=1;strokeColor=none;fillColor=none;" parent="1" vertex="1">
          <mxGeometry x="675" y="190" width="130" height="50" as="geometry" />
        </mxCell>
        <mxCell id="R9i_MHFADdYMmydRFdRO-32" value="&lt;b&gt;&lt;font style=&quot;font-size: 14px;&quot;&gt;R variable &lt;br&gt;attributes&lt;/font&gt;&lt;/b&gt;" style="text;html=1;align=center;verticalAlign=middle;resizable=0;points=[];autosize=1;strokeColor=none;fillColor=none;" parent="1" vertex="1">
          <mxGeometry x="525" y="190" width="90" height="50" as="geometry" />
        </mxCell>
        <mxCell id="H1IRXIPLBSH_am1i3g8e-1" value="SAS&lt;div&gt;Stata&lt;/div&gt;&lt;div&gt;&lt;br&gt;&lt;/div&gt;" style="shape=dataStorage;whiteSpace=wrap;html=1;fixedSize=1;" vertex="1" parent="1">
          <mxGeometry x="720" y="301" width="110" height="79" as="geometry" />
        </mxCell>
        <mxCell id="H1IRXIPLBSH_am1i3g8e-2" value="&lt;div style=&quot;forced-color-adjust: none; color: rgb(0, 0, 0); font-family: Helvetica; font-size: 12px; font-style: normal; font-variant-ligatures: normal; font-variant-caps: normal; font-weight: 400; letter-spacing: normal; orphans: 2; text-align: center; text-indent: 0px; text-transform: none; widows: 2; word-spacing: 0px; -webkit-text-stroke-width: 0px; white-space: normal; background-color: rgb(251, 251, 251); text-decoration-thickness: initial; text-decoration-style: initial; text-decoration-color: initial;&quot;&gt;data with&amp;nbsp; embedded labels&lt;/div&gt;" style="text;whiteSpace=wrap;html=1;" vertex="1" parent="1">
          <mxGeometry x="740" y="400" width="90" height="80" as="geometry" />
        </mxCell>
        <mxCell id="H1IRXIPLBSH_am1i3g8e-4" value="Metadata with your R project" style="text;html=1;align=center;verticalAlign=middle;resizable=0;points=[];autosize=1;strokeColor=none;fillColor=none;" vertex="1" parent="1">
          <mxGeometry x="370" y="130" width="180" height="30" as="geometry" />
        </mxCell>
        <mxCell id="H1IRXIPLBSH_am1i3g8e-5" value="Metadata starts as external CSV files that are imported into you R project. The CSV files are external reference files.&amp;nbsp;&lt;div&gt;&lt;br&gt;&lt;/div&gt;&lt;div style=&quot;text-align: left;&quot;&gt;Variable label, value labels and tagged_na can be imported into R datafiles from SAS and Stata using Haven.&amp;nbsp;&lt;/div&gt;&lt;div style=&quot;text-align: left;&quot;&gt;Once in your R project, you can set to variable and variable_details.&lt;/div&gt;&lt;div style=&quot;text-align: left;&quot;&gt;&lt;br&gt;&lt;/div&gt;" style="text;html=1;align=center;verticalAlign=middle;resizable=0;points=[];autosize=1;strokeColor=none;fillColor=none;" vertex="1" parent="1">
          <mxGeometry x="125" y="580" width="640" height="90" as="geometry" />
        </mxCell>
      </root>
    </mxGraphModel>
  </diagram>
</mxfile>
